REM DIRINDEX 1\2\4,1\2\5,1\3\6,1\3\7,1\3\8
REM DIRNAME cjc094,folder01,folder02,folder03,folder04,folder05,folder06,folder07
TITLE ""
FILE "LV2_034_WORDS.mp3" MP3
  TRACK 01 AUDIO
    TITLE "0:"
    INDEX 01 00:00:00
  TRACK 02 AUDIO
    TITLE "6:cjc094_1266"
    INDEX 01 00:00:01
  TRACK 03 AUDIO
    TITLE "0:"
    INDEX 01 00:02:16
  TRACK 04 AUDIO
    TITLE "7:cjc094_1267"
    INDEX 01 00:02:71
  TRACK 05 AUDIO
    TITLE "0:"
    INDEX 01 00:04:03
  TRACK 06 AUDIO
    TITLE "8:cjc094_1268"
    INDEX 01 00:04:15
  TRACK 07 AUDIO
    TITLE "0:"
    INDEX 01 00:05:63
  TRACK 08 AUDIO
    TITLE "7:cjc094_1269"
    INDEX 01 00:06:37
  TRACK 09 AUDIO
    TITLE "0:"
    INDEX 01 00:07:68
  TRACK 10 AUDIO
    TITLE "8:cjc094_1270"
    INDEX 01 00:08:03
  TRACK 11 AUDIO
    TITLE "0:"
    INDEX 01 00:10:37
  TRACK 12 AUDIO
    TITLE "7:cjc094_1271"
    INDEX 01 00:11:09
  TRACK 13 AUDIO
    TITLE "0:"
    INDEX 01 00:12:12
  TRACK 14 AUDIO
    TITLE "8:cjc094_1272"
    INDEX 01 00:12:26
  TRACK 15 AUDIO
    TITLE "0:"
    INDEX 01 00:13:51
  TRACK 16 AUDIO
    TITLE "7:cjc094_1273"
    INDEX 01 00:14:19
  TRACK 17 AUDIO
    TITLE "0:"
    INDEX 01 00:15:32
  TRACK 18 AUDIO
    TITLE "8:cjc094_1274"
    INDEX 01 00:15:50
  TRACK 19 AUDIO
    TITLE "0:"
    INDEX 01 00:17:14
  TRACK 20 AUDIO
    TITLE "7:cjc094_1275"
    INDEX 01 00:17:59
  TRACK 21 AUDIO
    TITLE "0:"
    INDEX 01 00:18:58
  TRACK 22 AUDIO
    TITLE "8:cjc094_1276"
    INDEX 01 00:19:01
  TRACK 23 AUDIO
    TITLE "0:"
    INDEX 01 00:21:19
  TRACK 24 AUDIO
    TITLE "7:cjc094_1277"
    INDEX 01 00:21:64
  TRACK 25 AUDIO
    TITLE "0:"
    INDEX 01 00:22:72
  TRACK 26 AUDIO
    TITLE "8:cjc094_1278"
    INDEX 01 00:23:10
  TRACK 27 AUDIO
    TITLE "0:"
    INDEX 01 00:26:64
  TRACK 28 AUDIO
    TITLE "7:cjc094_1279"
    INDEX 01 00:27:32
  TRACK 29 AUDIO
    TITLE "0:"
    INDEX 01 00:28:33
  TRACK 30 AUDIO
    TITLE "8:cjc094_1280"
    INDEX 01 00:28:51
  TRACK 31 AUDIO
    TITLE "0:"
    INDEX 01 00:30:71
  TRACK 32 AUDIO
    TITLE "7:cjc094_1281"
    INDEX 01 00:31:41
  TRACK 33 AUDIO
    TITLE "0:"
    INDEX 01 00:32:41
  TRACK 34 AUDIO
    TITLE "8:cjc094_1282"
    INDEX 01 00:32:52
  TRACK 35 AUDIO
    TITLE "0:"
    INDEX 01 00:34:73
  TRACK 36 AUDIO
    TITLE "7:cjc094_1283"
    INDEX 01 00:35:49
  TRACK 37 AUDIO
    TITLE "0:"
    INDEX 01 00:36:48
  TRACK 38 AUDIO
    TITLE "8:cjc094_1284"
    INDEX 01 00:36:64
  TRACK 39 AUDIO
    TITLE "0:"
    INDEX 01 00:38:43
  TRACK 40 AUDIO
    TITLE "7:cjc094_1285"
    INDEX 01 00:39:13
  TRACK 41 AUDIO
    TITLE "0:"
    INDEX 01 00:40:24
  TRACK 42 AUDIO
    TITLE "8:cjc094_1286"
    INDEX 01 00:40:38
  TRACK 43 AUDIO
    TITLE "0:"
    INDEX 01 00:41:47
  TRACK 44 AUDIO
    TITLE "7:cjc094_1287"
    INDEX 01 00:42:18
  TRACK 45 AUDIO
    TITLE "0:"
    INDEX 01 00:43:17
  TRACK 46 AUDIO
    TITLE "8:cjc094_1288"
    INDEX 01 00:43:39
  TRACK 47 AUDIO
    TITLE "0:"
    INDEX 01 00:44:42
  TRACK 48 AUDIO
    TITLE "7:cjc094_1289"
    INDEX 01 00:45:12
  TRACK 49 AUDIO
    TITLE "0:"
    INDEX 01 00:46:13
  TRACK 50 AUDIO
    TITLE "8:cjc094_1290"
    INDEX 01 00:46:25
  TRACK 51 AUDIO
    TITLE "0:"
    INDEX 01 00:47:56
  TRACK 52 AUDIO
    TITLE "7:cjc094_1291"
    INDEX 01 00:48:24
  TRACK 53 AUDIO
    TITLE "0:"
    INDEX 01 00:49:27
  TRACK 54 AUDIO
    TITLE "8:cjc094_1292"
    INDEX 01 00:49:39
  TRACK 55 AUDIO
    TITLE "0:"
    INDEX 01 00:50:74
  TRACK 56 AUDIO
    TITLE "7:cjc094_1293"
    INDEX 01 00:51:44
  TRACK 57 AUDIO
    TITLE "0:"
    INDEX 01 00:52:51
  TRACK 58 AUDIO
    TITLE "8:cjc094_1294"
    INDEX 01 00:52:71
  TRACK 59 AUDIO
    TITLE "0:"
    INDEX 01 00:54:25
